# xmcd
#
# Track frame offsets: 
#        150
#        13259
#        28212
#        55907
#        76179
#        93969
#        120694
#        137799
#        162121
#        179904
#        193309
#
# Disc length: 2772 seconds
#
# Revision: 1
# Processed by: cddbd v1.5.2PL0 Copyright (c) Steve Scherf et al.
# Submitted via: ExactAudioCopy v1.0b4
#
DISCID=990ad20b
DTITLE=Downchild Blues Band - I Need A Hat
DYEAR=2009
DGENRE=Blues, Modern Blues, Electric Blues,
TTITLE0=This Must Be Love
TTITLE1=I Need A Hat
TTITLE2=Somebody Lied
TTITLE3=You Don't Love Me
TTITLE4=Rendezvous
TTITLE5=Down In THe Delta
TTITLE6=Time To Say Good Bye
TTITLE7=What Was I Thinking
TTITLE8=These Thoughts Keep Marching
TTITLE9=Some More Of That
TTITLE10=EL Stew
EXTD=
EXTT0=
EXTT1=
EXTT2=
EXTT3=
EXTT4=
EXTT5=
EXTT6=
EXTT7=
EXTT8=
EXTT9=
EXTT10=
PLAYORDER=
